<?xml version="1.0" standalone="no"?>
<!DOCTYPE svg PUBLIC "-//W3C//DTD SVG 20010904//EN"
 "http://www.w3.org/TR/2001/REC-SVG-20010904/DTD/svg10.dtd">
<svg version="1.0" xmlns="http://www.w3.org/2000/svg"
 width="486.000000pt" height="513.000000pt" viewBox="0 0 486.000000 513.000000"
 preserveAspectRatio="xMidYMid meet">

<g transform="translate(0.000000,513.000000) scale(0.100000,-0.100000)"
fill="#000000" stroke="none">
<path d="M3995 5074 c-166 -40 -248 -81 -334 -167 -105 -106 -162 -215 -200
-379 -20 -85 -38 -246 -22 -197 21 66 77 161 115 196 56 53 99 77 180 103 59
19 83 22 180 18 173 -8 285 -56 388 -165 99 -107 138 -233 138 -447 0 -164
-13 -248 -70 -441 -200 -683 -447 -1227 -807 -1775 -13 -21 -11 -20 13 5 16
17 54 59 84 95 30 36 57 67 60 70 3 3 17 21 32 42 15 20 34 42 41 50 34 35
206 271 304 418 341 514 585 1088 673 1586 26 150 22 394 -9 504 -33 115 -84
210 -155 287 -121 130 -269 193 -471 199 -66 1 -129 1 -140 -2z"/>
<path d="M2740 3982 c0 -6 -8 -8 -17 -6 -29 7 -94 -38 -129 -88 -35 -51 -50
-123 -39 -180 10 -50 46 -117 75 -139 14 -10 31 -24 38 -29 20 -18 92 -40 126
-40 38 0 136 28 136 38 0 4 13 15 29 25 76 45 106 200 56 296 -24 46 -75 104
-75 86 0 -5 -6 -1 -12 8 -16 21 -44 29 -125 34 -38 3 -63 1 -63 -5z m-15 -21
c3 -5 2 -12 -3 -15 -5 -3 -9 1 -9 9 0 17 3 19 12 6z"/>
<path d="M3401 3948 c8 -117 -39 -444 -76 -521 -9 -20 -14 -41 -10 -46 3 -6 0
-9 -7 -6 -16 7 -61 -42 -53 -56 4 -5 11 -6 17 -3 7 5 8 2 4 -5 -6 -9 -12 -8
-25 4 -16 14 -20 14 -42 -4 -13 -10 -28 -19 -34 -20 -5 0 -23 -3 -40 -6 -16
-2 -91 -6 -165 -9 -247 -7 -450 -24 -450 -36 0 -5 -9 -6 -20 -3 -11 3 -41 2
-67 -3 -41 -7 -27 -9 92 -15 77 -3 151 -9 165 -12 100 -25 120 -28 131 -21 7
4 9 3 6 -3 -4 -6 14 -18 41 -28 26 -10 62 -26 81 -36 19 -10 38 -16 43 -13 4
3 8 -2 8 -10 0 -8 8 -17 18 -20 67 -22 252 -260 322 -416 19 -41 37 -77 41
-80 3 -3 9 -16 12 -30 6 -28 53 -197 68 -246 5 -17 9 -48 9 -70 0 -21 4 -34 8
-27 4 7 8 -7 8 -30 1 -23 3 -112 5 -199 2 -86 1 -154 -2 -152 -7 4 -22 -87
-15 -93 6 -7 56 138 50 148 -3 5 -1 9 4 9 6 0 13 7 16 16 3 9 2 12 -4 9 -6 -4
-2 8 8 27 10 18 23 51 29 73 37 126 52 187 63 250 7 39 16 90 20 115 5 25 14
120 21 212 17 220 3 418 -47 688 -37 199 -61 290 -78 290 -6 0 -4 5 4 10 10 6
11 10 3 10 -7 0 -12 3 -12 8 4 24 -2 42 -13 36 -7 -4 -8 -3 -4 5 8 13 -20 117
-38 140 -6 7 -11 19 -11 25 -1 12 -8 31 -35 91 -9 22 -21 50 -24 63 -11 33
-28 27 -25 -10z m-121 -1083 c0 -2 -9 -3 -19 -2 -11 0 -18 5 -15 9 4 6 34 0
34 -7z"/>
<path d="M181 1805 c-5 -11 -10 -14 -10 -6 -2 25 -31 -9 -31 -35 0 -27 -53
-66 -76 -57 -16 6 -44 -13 -44 -29 0 -6 9 -8 21 -5 17 5 18 3 8 -10 -11 -12
-10 -14 2 -12 7 2 28 -2 46 -10 l32 -13 3 -94 c2 -52 0 -94 -3 -94 -3 0 -6
-39 -8 -87 -1 -49 -4 -97 -8 -108 -5 -18 -4 -19 13 -5 18 14 18 14 1 -6 -13
-16 -19 -46 -23 -120 -12 -205 -16 -476 -7 -471 5 3 7 -9 5 -26 -4 -44 21
-112 41 -111 9 1 15 -3 14 -9 -3 -18 27 -19 48 -2 11 9 13 13 5 9 -13 -7 -13
-5 -1 9 8 10 9 17 3 17 -6 0 -13 14 -17 30 -4 18 -11 27 -17 24 -6 -4 -8 -3
-5 2 3 6 7 110 8 233 2 250 -1 241 82 255 21 4 36 10 33 14 -2 4 12 7 32 8 21
0 51 3 67 7 17 4 66 10 110 13 44 4 87 8 95 10 8 1 25 3 38 3 15 1 22 7 22 22
0 11 -4 17 -10 14 -5 -3 -7 0 -4 9 10 27 -34 39 -120 33 -98 -7 -258 -36 -251
-46 2 -4 -13 -5 -33 -2 l-37 6 -3 65 c-2 36 4 128 13 205 26 231 21 214 66
221 21 4 36 10 34 14 -3 5 4 6 15 3 12 -3 56 4 98 15 130 35 192 44 280 43 74
0 82 2 71 15 -7 8 -18 13 -26 10 -8 -3 -12 -2 -9 3 17 28 -104 54 -189 42
-104 -16 -273 -49 -285 -56 -17 -11 -39 26 -42 72 -2 19 -36 11 -47 -12z"/>
<path d="M4330 1818 c-1 -2 -3 -84 -5 -183 -7 -267 -15 -389 -25 -399 -7 -7
-25 4 -53 30 -63 61 -96 77 -148 77 -91 0 -159 -85 -217 -273 -42 -135 -50
-351 -17 -433 6 -15 10 -15 24 -5 14 12 15 11 2 -5 -12 -16 -12 -21 6 -45 12
-15 26 -26 33 -24 6 1 9 -2 5 -8 -9 -15 93 -60 137 -60 56 0 123 34 178 91 27
29 52 50 55 47 9 -8 13 -36 14 -80 1 -49 38 -93 69 -84 12 4 20 11 17 16 -12
20 -32 221 -29 295 1 44 8 215 14 380 7 170 20 359 30 435 21 152 18 182 -18
210 -20 16 -71 28 -72 18z m-180 -553 c75 -14 132 -81 150 -176 11 -55 4 -216
-11 -255 -5 -15 -2 -27 9 -40 16 -17 16 -17 -2 -3 -18 12 -19 12 -13 -3 3 -9
2 -18 -2 -20 -8 -3 -42 -95 -44 -120 -1 -9 -5 -14 -9 -12 -4 3 -8 1 -8 -5 0
-21 -70 -80 -102 -85 -62 -10 -98 -13 -93 -8 3 3 -9 13 -25 23 -17 11 -30 24
-30 29 0 6 -4 9 -8 6 -4 -2 -8 3 -9 12 -1 9 -6 35 -12 57 -13 48 -13 227 -1
270 5 17 11 41 13 55 2 14 6 32 9 40 3 8 16 44 28 79 12 35 31 73 41 85 11 11
19 26 19 33 0 7 7 13 15 13 9 0 18 6 21 14 3 9 12 12 21 9 12 -5 14 -3 8 7 -5
9 -4 11 3 6 7 -4 21 -9 32 -11z"/>
<path d="M3589 1608 c-19 -36 15 -109 42 -92 8 4 9 3 5 -4 -10 -17 45 -16 68
1 17 12 21 35 13 71 -9 42 -108 61 -128 24z m116 -29 c-1 -10 -3 -20 -6 -21
-2 -2 -3 -1 -2 1 1 2 -2 11 -7 21 -6 12 -5 17 4 17 7 0 12 -8 11 -18z"/>
<path d="M1473 1316 c-12 -13 -19 -27 -15 -30 3 -3 6 -169 6 -369 1 -371 4
-407 41 -421 34 -13 50 1 49 40 -1 21 -2 61 -3 87 -1 27 -4 46 -8 44 -5 -3 -8
35 -8 84 0 49 3 89 8 89 4 0 7 13 7 28 0 16 6 50 14 75 8 26 13 47 11 47 -2 0
16 39 40 86 25 48 42 91 38 97 -3 6 -1 7 4 4 14 -9 47 29 37 44 -4 7 -3 10 3
6 10 -6 56 26 49 34 -3 2 17 5 43 7 41 2 50 -1 78 -30 63 -67 93 -214 102
-513 6 -219 6 -220 30 -231 52 -26 53 -21 48 235 -4 222 -19 357 -37 346 -5
-3 -6 4 -3 15 8 29 -53 145 -90 173 -42 32 -101 62 -92 47 5 -9 1 -9 -16 0
-29 16 -79 21 -79 8 0 -5 -5 -6 -12 -2 -7 5 -9 2 -5 -9 4 -11 2 -14 -8 -11
-19 8 -58 -34 -50 -54 3 -9 3 -13 -1 -9 -9 9 -43 -31 -50 -60 -4 -13 -10 -23
-16 -23 -5 0 -7 -4 -4 -8 2 -4 -4 -13 -14 -20 -14 -8 -21 -8 -26 -1 -9 15 -8
159 1 182 4 10 3 17 -5 17 -6 0 -8 -6 -4 -12 4 -8 3 -10 -2 -5 -5 5 -9 14 -9
20 0 22 -31 18 -52 -7z m24 -1 c0 -8 -4 -12 -9 -9 -5 3 -6 10 -3 15 9 13 12
11 12 -6z m386 -50 c-3 -9 -8 -14 -10 -11 -3 3 -2 9 2 15 9 16 15 13 8 -4z
m-333 -325 c-6 -11 -13 -20 -16 -20 -2 0 0 9 6 20 6 11 13 20 16 20 2 0 0 -9
-6 -20z"/>
<path d="M2866 1311 c-14 -15 -16 -31 -11 -92 11 -129 64 -356 79 -342 5 4 6
3 2 -5 -9 -16 3 -54 15 -47 5 3 6 -1 3 -10 -7 -18 12 -71 35 -99 9 -11 11 -17
5 -13 -9 5 17 -53 49 -108 28 -49 94 -95 135 -95 20 0 72 49 72 68 0 7 4 12 8
12 11 0 52 96 57 130 0 3 4 11 8 18 5 6 5 17 2 22 -3 6 -2 10 2 10 11 0 46
137 39 149 -4 5 -2 11 4 13 10 3 16 24 25 88 3 19 9 62 15 95 13 78 13 181 0
206 -11 20 -40 27 -40 9 0 -6 -5 -9 -12 -8 -14 3 -27 -55 -27 -124 -1 -51 -14
-143 -38 -273 -8 -44 -15 -95 -16 -112 -1 -18 -5 -33 -9 -33 -5 0 -8 -5 -8
-11 0 -20 -57 -134 -73 -148 -10 -7 -27 -11 -41 -7 -70 17 -212 471 -200 638
2 36 0 59 -8 64 -7 5 -8 2 -3 -7 4 -8 -2 -4 -14 9 -26 27 -33 27 -55 3z m119
-391 c4 -6 -1 -7 -11 -3 -10 4 -15 2 -11 -4 3 -5 0 -10 -8 -10 -11 0 -12 4 -4
14 14 15 26 17 34 3z"/>
<path d="M809 1313 c-27 -7 -31 -59 -26 -362 5 -293 10 -327 49 -384 21 -29
41 -28 32 1 -5 13 -4 14 4 3 5 -7 7 -21 5 -31 -3 -12 7 -25 29 -41 26 -19 46
-24 95 -24 56 0 67 4 120 41 32 22 57 46 56 52 -2 6 4 9 12 6 8 -4 18 -24 21
-45 8 -47 24 -62 61 -57 23 3 29 9 36 44 4 22 3 94 -2 160 -4 65 -7 160 -5
209 4 129 14 266 20 293 3 13 1 21 -4 18 -5 -3 -9 1 -9 9 0 8 5 11 10 8 17
-10 -3 51 -20 65 -41 31 -112 0 -97 -42 4 -12 9 -113 11 -226 3 -180 1 -213
-16 -275 -15 -54 -17 -73 -8 -85 11 -13 10 -13 -5 -1 -10 7 -18 9 -18 4 0 -5
-14 -27 -32 -47 -30 -35 -83 -66 -115 -66 -18 0 -106 60 -99 67 3 3 -5 24 -16
47 -25 46 -27 90 -18 440 4 186 3 199 -15 212 -19 14 -27 15 -56 7z"/>
<path d="M2410 1308 c0 -5 -3 -7 -7 -7 -47 8 -115 -79 -149 -190 -21 -70 -18
-117 8 -135 32 -22 35 -21 36 22 1 22 9 56 17 76 9 20 13 42 9 49 -4 7 -4 9 1
5 8 -8 61 61 57 75 -1 4 4 6 11 5 6 -2 11 3 9 10 -1 8 1 11 5 9 5 -3 23 3 42
12 27 14 43 16 80 10 81 -15 126 -94 136 -238 6 -94 -1 -121 -29 -121 -17 0
-18 -2 -6 -10 8 -5 10 -10 5 -10 -6 0 -16 5 -22 11 -8 8 -17 8 -33 -1 -13 -7
-20 -8 -16 -2 4 7 -17 10 -59 10 -36 -1 -65 -4 -65 -9 0 -4 -9 -5 -20 -2 -12
3 -40 -3 -63 -13 -55 -24 -159 -103 -152 -115 4 -5 2 -9 -3 -9 -14 0 -32 -47
-32 -83 0 -88 136 -163 280 -155 41 3 86 11 100 18 14 8 31 15 39 16 7 2 19 8
25 15 8 9 7 10 -4 4 -8 -5 -12 -4 -8 0 10 11 56 16 62 6 3 -4 6 -31 7 -59 3
-57 16 -75 51 -70 l23 3 2 285 c2 189 0 280 -7 270 -5 -8 -10 -10 -10 -4 0 6
3 14 7 17 11 11 3 118 -11 152 -19 43 -73 98 -88 89 -7 -4 -10 -4 -6 1 13 14
-38 44 -99 60 -59 15 -123 16 -123 3z m164 -460 c-5 -8 -2 -9 9 -5 10 3 17 2
17 -4 0 -6 6 -9 12 -7 15 5 42 -26 52 -60 10 -30 -22 -132 -43 -140 -9 -3 -31
-17 -50 -31 -43 -33 -52 -35 -143 -34 -93 1 -118 5 -112 15 3 5 -2 11 -10 14
-8 3 -18 14 -21 25 -4 11 -10 17 -14 15 -4 -3 -5 11 -3 30 3 20 -2 42 -9 52
-13 15 -12 16 4 3 12 -10 17 -10 17 -1 0 6 9 24 20 40 11 15 16 30 13 34 -4 4
1 4 11 0 15 -6 17 -4 11 6 -5 9 -4 11 3 6 6 -4 25 0 42 9 16 8 30 13 30 11 0
-3 15 0 33 5 17 5 51 10 74 10 24 0 45 5 49 10 3 5 7 9 10 9 3 0 2 -5 -2 -12z
m-281 -73 c-3 -9 -8 -14 -10 -11 -3 3 -2 9 2 15 9 16 15 13 8 -4z m-26 -192
c-4 -3 -1 -13 6 -22 11 -14 10 -14 -5 -2 -16 12 -16 31 -1 31 4 0 3 -3 0 -7z"/>
<path d="M3583 1294 c-17 -7 -19 -719 -3 -729 6 -4 8 -10 5 -15 -12 -19 65
-63 82 -46 3 3 1 31 -6 63 -11 57 -14 559 -2 548 3 -3 11 29 18 71 11 65 11
80 0 91 -15 15 -75 26 -94 17z"/>
<path d="M2156 403 c-9 -10 -7 -65 3 -59 11 7 20 55 11 61 -4 2 -10 2 -14 -2z"/>
<path d="M30 383 c-10 -12 -11 -18 -2 -21 7 -2 12 -23 12 -50 0 -55 9 -51 15
8 5 49 1 44 40 58 l30 11 -37 -3 c-21 -2 -35 1 -32 5 9 15 -10 9 -26 -8z"/>
<path d="M153 393 c9 -2 25 -2 35 0 9 3 1 5 -18 5 -19 0 -27 -2 -17 -5z"/>
<path d="M780 336 c0 -80 0 -79 -10 -91 -4 -5 -4 -28 0 -50 9 -44 9 -43 15 70
3 44 7 90 10 102 3 12 1 25 -5 28 -6 4 -10 -18 -10 -59z"/>
<path d="M1975 360 c-15 -22 -25 -43 -21 -47 3 -3 6 -2 6 4 0 6 9 22 21 37 17
21 24 24 40 16 10 -6 19 -19 19 -30 0 -10 5 -22 11 -26 8 -4 9 1 4 17 -10 30
-35 69 -45 69 -4 0 -20 -18 -35 -40z"/>
<path d="M3361 358 c-3 -109 -11 -255 -15 -275 -2 -12 1 -23 7 -26 9 -3 13 24
14 102 0 58 4 136 8 174 3 39 2 67 -3 67 -5 0 -10 -19 -11 -42z"/>
<path d="M3750 376 c0 -14 5 -26 10 -26 6 0 10 9 10 19 0 11 -4 23 -10 26 -6
4 -10 -5 -10 -19z"/>
<path d="M4238 327 c-1 -43 0 -77 4 -77 9 0 15 129 6 143 -3 6 -8 -24 -10 -66z"/>
<path d="M3961 374 c0 -11 3 -14 6 -6 3 7 2 16 -1 19 -3 4 -6 -2 -5 -13z"/>
<path d="M1267 335 c3 -8 9 -12 14 -9 12 7 11 11 -5 17 -10 4 -13 1 -9 -8z"/>
<path d="M2236 341 c-4 -5 -2 -12 3 -15 5 -4 12 -2 15 3 4 5 2 12 -3 15 -5 4
-12 2 -15 -3z"/>
<path d="M4022 338 c5 -15 28 -23 28 -10 0 5 -7 13 -16 16 -10 4 -14 1 -12 -6z"/>
<path d="M3758 305 c2 -19 6 -35 8 -35 2 0 4 16 4 35 0 19 -4 35 -8 35 -4 0
-6 -16 -4 -35z"/>
<path d="M2062 248 c14 -81 18 -89 12 -23 -2 32 -8 63 -13 68 -5 5 -5 -15 1
-45z"/>
<path d="M1093 255 c-13 -9 -27 -34 -33 -56 -13 -49 -7 -63 8 -20 6 17 8 31 4
31 -4 0 -2 4 3 8 14 10 49 52 44 52 -3 0 -14 -7 -26 -15z"/>
<path d="M3259 247 c-9 -18 -9 -20 2 -9 7 6 24 12 38 12 28 0 24 9 -8 15 -14
3 -25 -3 -32 -18z"/>
<path d="M4144 256 c-15 -11 -13 -12 14 -8 36 5 38 7 18 15 -8 3 -22 0 -32 -7z"/>
<path d="M432 190 l-1 -75 15 39 c8 23 10 42 5 45 -5 4 -11 20 -14 36 -2 17
-4 -4 -5 -45z"/>
<path d="M660 214 c-11 -25 -20 -55 -19 -67 0 -14 5 -7 13 18 19 61 34 83 58
88 20 4 19 4 -5 6 -24 1 -30 -5 -47 -45z"/>
<path d="M890 250 c-18 -12 -2 -12 25 0 13 6 15 9 5 9 -8 0 -22 -4 -30 -9z"/>
<path d="M1375 250 c-4 -7 3 -8 22 -4 38 9 42 14 10 14 -14 0 -29 -5 -32 -10z"/>
<path d="M2340 235 c-13 -14 -21 -28 -18 -31 4 -3 12 4 18 16 6 11 21 25 33
30 14 6 17 9 6 9 -8 1 -26 -10 -39 -24z"/>
<path d="M2510 250 c0 -5 5 -10 11 -10 5 0 7 5 4 10 -3 6 -8 10 -11 10 -2 0
-4 -4 -4 -10z"/>
<path d="M2570 245 c-19 -22 -8 -25 13 -3 9 10 13 18 8 18 -5 0 -14 -7 -21
-15z"/>
<path d="M2828 250 c20 -9 21 -12 11 -32 -11 -21 -11 -22 4 -9 28 22 22 51
-10 50 -27 0 -27 -1 -5 -9z"/>
<path d="M2954 252 c-12 -8 -34 -46 -34 -59 1 -4 8 5 16 20 8 15 25 32 37 37
13 5 16 9 7 9 -8 0 -20 -3 -26 -7z"/>
<path d="M3470 250 c0 -13 11 -13 30 0 12 8 11 10 -7 10 -13 0 -23 -4 -23 -10z"/>
<path d="M3770 241 c0 -12 10 -60 21 -106 16 -63 27 -88 45 -100 22 -14 24
-13 49 19 28 37 33 55 10 36 -8 -7 -15 -19 -15 -26 0 -8 -10 -14 -24 -14 -29
0 -50 46 -65 141 -11 64 -21 89 -21 50z"/>
<path d="M3941 244 c0 -11 3 -14 6 -6 3 7 2 16 -1 19 -3 4 -6 -2 -5 -13z"/>
<path d="M4343 248 c-17 -22 -26 -45 -10 -26 7 10 25 22 38 27 22 9 23 10 3
10 -12 1 -26 -5 -31 -11z"/>
<path d="M230 176 c0 -84 8 -136 22 -136 5 0 6 5 2 12 -4 6 -6 53 -6 105 2 57
-2 93 -8 93 -6 0 -10 -31 -10 -74z"/>
<path d="M360 181 c0 -46 -6 -83 -16 -102 -8 -17 -13 -33 -10 -37 3 -3 6 1 6
9 0 12 2 12 10 -1 5 -8 11 -12 14 -10 8 9 11 198 3 206 -4 4 -7 -25 -7 -65z"/>
<path d="M1250 163 c0 -47 2 -84 4 -82 8 10 13 169 5 169 -5 0 -9 -39 -9 -87z"/>
<path d="M2231 138 c2 -131 7 -125 11 15 2 53 0 97 -4 97 -4 0 -7 -51 -7 -112z"/>
<path d="M4020 220 c0 -16 2 -30 4 -30 2 0 6 14 8 30 3 17 1 30 -4 30 -4 0 -8
-13 -8 -30z"/>
<path d="M2429 218 c13 -36 11 -139 -3 -157 -8 -11 -8 -15 2 -18 6 -3 12 -13
12 -24 0 -10 3 -19 8 -19 13 0 -2 218 -16 232 -11 11 -11 8 -3 -14z"/>
<path d="M4228 233 c-2 -5 -1 -24 3 -43 7 -35 7 -35 6 8 -1 42 -3 48 -9 35z"/>
<path d="M4421 235 c0 -5 6 -21 14 -35 8 -14 14 -20 14 -15 0 6 -6 21 -14 35
-8 14 -14 21 -14 15z"/>
<path d="M32 153 l1 -78 6 59 6 60 51 11 c27 6 57 10 65 7 11 -3 11 -2 1 6 -9
6 -33 4 -67 -3 -45 -11 -53 -11 -48 1 3 8 0 14 -6 14 -7 0 -10 -26 -9 -77z"/>
<path d="M566 211 c3 -13 10 -56 15 -95 l8 -71 -3 75 c-2 42 -8 85 -15 95 -11
18 -11 18 -5 -4z"/>
<path d="M1345 200 c-9 -16 -12 -30 -7 -30 4 0 13 14 19 30 6 17 10 30 7 30
-2 0 -10 -13 -19 -30z"/>
<path d="M3450 219 c0 -5 5 -7 10 -4 6 3 10 8 10 11 0 2 -4 4 -10 4 -5 0 -10
-5 -10 -11z"/>
<path d="M4119 228 c-9 -30 -12 -54 -14 -108 l-3 -65 8 65 c9 80 12 93 25 102
6 5 5 8 -2 8 -7 0 -13 -1 -14 -2z"/>
<path d="M970 210 c0 -5 5 -10 11 -10 5 0 7 5 4 10 -3 6 -8 10 -11 10 -2 0 -4
-4 -4 -10z"/>
<path d="M1172 200 c0 -14 2 -19 5 -12 2 6 2 18 0 25 -3 6 -5 1 -5 -13z"/>
<path d="M1540 190 c-4 -63 -3 -150 2 -155 3 -3 6 23 7 57 1 34 7 70 12 80 6
11 6 18 0 18 -5 0 -12 8 -14 18 -3 9 -6 1 -7 -18z"/>
<path d="M1902 195 c-17 -37 -14 -45 4 -12 9 16 14 31 11 33 -2 2 -9 -7 -15
-21z"/>
<path d="M3037 152 c1 -44 -3 -75 -13 -89 -13 -21 -13 -23 6 -23 18 0 20 6 20
84 0 47 -3 87 -7 89 -5 3 -7 -25 -6 -61z"/>
<path d="M3231 183 c-6 -21 -11 -44 -11 -52 0 -17 13 -6 16 13 1 7 5 28 9 45
9 44 -2 39 -14 -6z"/>
<path d="M3553 185 c-1 -19 3 -32 8 -29 11 6 11 35 1 51 -5 8 -8 -1 -9 -22z"/>
<path d="M3931 204 c0 -11 3 -14 6 -6 3 7 2 16 -1 19 -3 4 -6 -2 -5 -13z"/>
<path d="M2525 199 c-11 -4 -15 -8 -8 -8 8 -1 9 -10 3 -31 -12 -41 -3 -38 15
7 18 42 17 43 -10 32z"/>
<path d="M3437 180 c-10 -37 -8 -110 3 -110 5 0 7 7 4 15 -4 8 -2 21 4 28 6 7
7 29 3 52 -6 36 -7 38 -14 15z"/>
<path d="M982 170 c0 -14 2 -19 5 -12 2 6 2 18 0 25 -3 6 -5 1 -5 -13z"/>
<path d="M1683 117 c1 -43 5 -81 9 -83 10 -6 8 91 -2 131 -6 21 -8 7 -7 -48z"/>
<path d="M2662 113 c2 -45 6 -79 10 -77 7 5 0 145 -8 153 -2 3 -3 -32 -2 -76z"/>
<path d="M3911 148 c-10 -30 -9 -31 4 -14 8 11 15 26 15 33 0 22 -8 14 -19
-19z"/>
<path d="M4023 110 c0 -41 2 -58 4 -38 2 21 2 55 0 76 -2 20 -4 3 -4 -38z"/>
<path d="M1483 135 c0 -22 2 -30 4 -17 2 12 2 30 0 40 -3 9 -5 -1 -4 -23z"/>
<path d="M4435 150 c-3 -11 -12 -20 -18 -20 -7 0 -4 -5 6 -11 23 -13 22 -34
-4 -58 -18 -17 -19 -19 -3 -18 11 1 20 -7 25 -23 4 -15 7 10 7 63 0 48 -2 87
-3 87 -2 0 -7 -9 -10 -20z"/>
<path d="M1330 119 c0 -24 5 -51 10 -59 7 -10 8 2 4 40 -8 69 -14 77 -14 19z"/>
<path d="M769 123 c-1 -16 -1 -34 0 -42 2 -7 -2 -10 -8 -6 -6 3 -11 2 -11 -3
0 -6 7 -12 15 -16 12 -4 15 4 15 44 0 52 -9 70 -11 23z"/>
<path d="M1883 138 c0 -7 -3 -24 -5 -38 -3 -14 -3 -20 -1 -13 2 6 19 16 36 22
37 12 149 17 163 8 6 -3 16 -2 22 2 10 6 10 10 0 18 -9 7 -40 7 -100 -2 -72
-10 -89 -9 -101 2 -11 11 -14 11 -14 1z"/>
<path d="M4227 116 c-3 -21 -14 -48 -24 -60 -17 -19 -17 -20 0 -7 19 15 19 15
34 -12 7 -14 9 -3 6 40 -6 78 -8 85 -16 39z"/>
<path d="M974 115 c4 -14 2 -34 -3 -44 -6 -10 -6 -22 -2 -27 5 -5 11 -18 14
-29 3 -11 5 13 6 53 1 47 -3 72 -10 72 -7 0 -9 -10 -5 -25z"/>
<path d="M1046 132 c-3 -5 -1 -22 4 -38 8 -29 8 -29 9 9 1 36 -3 45 -13 29z"/>
<path d="M2335 120 c-3 -6 1 -7 9 -4 18 7 21 14 7 14 -6 0 -13 -4 -16 -10z"/>
<path d="M3478 113 c6 -2 18 -2 25 0 6 3 1 5 -13 5 -14 0 -19 -2 -12 -5z"/>
<path d="M433 75 c0 -22 2 -30 4 -17 2 12 2 30 0 40 -3 9 -5 -1 -4 -23z"/>
<path d="M640 89 c0 -13 5 -31 10 -39 7 -11 8 -5 4 20 -8 43 -14 51 -14 19z"/>
<path d="M2301 91 c-7 -13 -6 -23 2 -35 11 -16 13 -13 13 18 0 41 -2 43 -15
17z"/>
<path d="M2900 90 c-8 -16 -8 -24 3 -34 11 -12 13 -9 13 20 -1 40 -2 40 -16
14z"/>
<path d="M3222 90 c0 -14 2 -19 5 -12 2 6 2 18 0 25 -3 6 -5 1 -5 -13z"/>
<path d="M4302 98 c-15 -15 -15 -33 1 -46 9 -8 12 -2 12 24 0 19 0 34 0 34 -1
0 -6 -5 -13 -12z"/>
<path d="M2081 78 c-1 -15 4 -30 9 -33 12 -7 12 12 0 40 -8 18 -9 17 -9 -7z"/>
<path d="M835 79 c-13 -20 26 -49 64 -47 l36 1 -34 4 c-38 5 -60 22 -53 41 5
15 -4 16 -13 1z"/>
<path d="M2724 65 c-7 -17 12 -45 29 -45 6 0 2 6 -8 14 -11 8 -16 19 -12 30 4
9 4 16 1 16 -2 0 -7 -7 -10 -15z"/>
<path d="M31 54 c0 -11 3 -14 6 -6 3 7 2 16 -1 19 -3 4 -6 -2 -5 -13z"/>
<path d="M1862 40 c0 -14 2 -19 5 -12 2 6 2 18 0 25 -3 6 -5 1 -5 -13z"/>
<path d="M2160 45 c0 -8 4 -15 10 -15 5 0 7 7 4 15 -4 8 -8 15 -10 15 -2 0 -4
-7 -4 -15z"/>
<path d="M3234 51 c7 -11 46 -35 46 -28 0 3 -12 12 -26 22 -15 9 -23 12 -20 6z"/>
<path d="M1255 40 c3 -5 8 -10 11 -10 2 0 4 5 4 10 0 6 -5 10 -11 10 -5 0 -7
-4 -4 -10z"/>
<path d="M2800 39 c-33 -6 -33 -6 13 -8 26 0 47 3 47 7 0 10 -12 10 -60 1z"/>
<path d="M3520 40 c-18 -12 -2 -12 25 0 13 6 15 9 5 9 -8 0 -22 -4 -30 -9z"/>
<path d="M265 30 c-4 -6 3 -10 14 -10 25 0 27 6 6 13 -8 4 -17 2 -20 -3z"/>
</g>
</svg>
